<svg xmlns="http://www.w3.org/2000/svg" viewBox="0 0 24 24" width="24px" height="24px"><path d="M17.5,11.6c-0.9-1.2-2.3-1.9-3.9-1.9c-1.6,0-3.1,0.8-4.1,1.9c-0.9,1.2-1.4,2.7-1.4,4.3c0,1.6,0.5,3.1,1.4,4.3 c0.9,1.2,2.3,1.9,3.9,1.9c1.6,0,3.1-0.8,4.1-1.9c0.9-1.2,1.4-2.7,1.4-4.3C18.9,14.3,18.4,12.8,17.5,11.6z M12,2 C6.5,2,2,6.5,2,12c0,5.5,4.5,10,10,10c5.5,0,10-4.5,10-10C22,6.5,17.5,2,12,2z M12,4c2.2,0,4,1.8,4,4s-1.8,4-4,4s-4-1.8-4-4 S9.8,4,12,4z M12,14c-2.2,0-4,1.8-4,4s1.8,4,4,4s4-1.2,4-4S14.2,14,12,14z"/></svg>