<svg xmlns="http://www.w3.org/2000/svg" viewBox="0 0 48 48" width="48px" height="48px"><path fill="#FFC107" d="M43.611,20.083H42V20H24v8h11.303c-1.649,4.657-6.08,8-11.303,8c-6.627,0-12-5.373-12-12c0-6.627,5.373-12,12-12c3.059,0,5.842,1.154,8,3.029V10.18C34.479,11.129,38.795,15,42,20H43.611z"/><path fill="#FF3D00" d="M6.39,14.621C3.462,16.668,2,20.005,2,24c0,3.995,1.462,7.332,4.39,9.379L10.719,29.9C8.995,28.681,8,26.427,8,24c0-2.427,0.995-4.681,2.719-5.4L6.39,14.621z"/><path fill="#4CAF50" d="M24,44c5.166,0,9.86-1.977,13.409-5.192l-3.573-2.759C31.819,35.492,28.019,37,24,37c-5.238,0-9.646-3.917-11.303-9.2L6.39,33.379C9.939,36.045,16.282,44,24,44z"/><path fill="#1976D2" d="M43.611,20.083H42V20H24v8h11.303c-1.649,4.657-6.08,8-11.303,8c-6.627,0-12-5.373-12-12c0-6.627,5.373-12,12-12c3.059,0,5.842,1.154,8,3.029V10.18C34.479,11.129,38.795,15,42,20H43.611z" transform="translate(0 -4)"/></svg>